# xmcd
#
# Track frame offsets: 
#        150
#        25132
#        40648
#        59326
#        82741
#        110555
#        136433
#        156953
#        179289
#        199823
#
# Disc length: 2823 seconds
#
# Revision: 3
# Processed by: cddbd v1.5.2PL0 Copyright (c) Steve Scherf et al.
# Submitted via: ExactAudioCopyFreeDBPlugin 1.0
#
DISCID=7d0b050a
DTITLE=Various Artist - Putumayo presents ¡Salsa!
DYEAR=2009
DGENRE=Latin
TTITLE0=Grupo Galé - Volver, Volver
TTITLE1=Poncho Sanchez - El Shing-A-Ling
TTITLE2=Chico Alvarez - Rumba En El Solar
TTITLE3=Eddie Palmieri - Sujétate La Lengua
TTITLE4=Orquesta Aragon (feat. Cheo Feliciano) - Son Al Son
TTITLE5=Son Boricua - Muñeca
TTITLE6=Fruko y Sus Tesos - Nací En La Barriada
TTITLE7=Jose Conde y Ola Fresca - Ay Que Rico
TTITLE8=Ricardo Lemvo and Makina Loca - Ay Valeria!
TTITLE9=Juanito y la Agresiva - Angoa
EXTD=YEAR: 2009
EXTT0=
EXTT1=
EXTT2=
EXTT3=
EXTT4=
EXTT5=
EXTT6=
EXTT7=
EXTT8=
EXTT9=
PLAYORDER=
